<?xml version="1.0" standalone="no"?>
<!DOCTYPE svg PUBLIC "-//W3C//DTD SVG 20010904//EN"
 "http://www.w3.org/TR/2001/REC-SVG-20010904/DTD/svg10.dtd">
<svg version="1.0" xmlns="http://www.w3.org/2000/svg"
 width="500.000000pt" height="500.000000pt" viewBox="0 0 500.000000 500.000000"
 preserveAspectRatio="xMidYMid meet">
<metadata>
Created by potrace 1.11, written by Peter Selinger 2001-2013
</metadata>
<g transform="translate(0.000000,500.000000) scale(0.100000,-0.100000)"
fill="#000000" stroke="none">
<path d="M270 2500 l0 -2230 2230 0 2230 0 0 2230 0 2230 -2230 0 -2230 0 0
-2230z m4381 2150 c5 -26 2 -4285 -3 -4293 -9 -14 -4296 -17 -4301 -2 -2 9 0
4227 2 4280 1 20 8 20 2151 20 1183 0 2150 -2 2151 -5z"/>
<path d="M1245 3845 c-272 -62 -467 -220 -603 -490 -61 -122 -118 -320 -137
-474 -4 -30 -9 -63 -12 -75 -12 -50 -10 -514 3 -606 8 -52 16 -111 19 -131 18
-133 85 -327 160 -465 158 -290 349 -424 660 -465 121 -16 318 -6 420 20 212
55 388 208 503 436 56 112 150 433 132 448 -4 3 -434 181 -516 214 -7 2 -16
-21 -24 -59 -32 -163 -96 -313 -162 -374 -62 -59 -113 -78 -213 -78 -108 -1
-159 18 -227 87 -112 111 -155 297 -155 667 -1 162 7 257 31 388 28 148 123
290 231 342 68 33 188 35 255 4 91 -42 179 -159 210 -279 7 -27 16 -53 19 -57
5 -6 175 41 453 126 l87 27 -15 52 c-113 387 -283 613 -533 708 -162 61 -404
75 -586 34z"/>
<path d="M3488 3865 c-2 -2 -23 -5 -48 -8 -274 -33 -475 -182 -574 -427 -19
-47 -41 -116 -49 -155 -19 -90 -19 -290 0 -369 8 -34 16 -68 18 -77 2 -10 19
-50 38 -90 97 -209 286 -350 618 -460 288 -95 355 -135 401 -237 63 -140 6
-307 -126 -368 -70 -33 -179 -29 -252 8 -60 32 -119 94 -147 157 -27 62 -57
177 -57 224 l0 39 -62 -6 c-35 -3 -94 -8 -133 -11 -38 -3 -86 -8 -105 -10 -19
-2 -78 -7 -130 -11 -133 -9 -134 -9 -147 -17 -7 -4 -10 -13 -8 -20 2 -7 6 -37
9 -67 5 -48 12 -91 30 -179 24 -110 103 -285 176 -383 73 -99 197 -184 320
-219 25 -7 47 -13 50 -14 3 -1 21 -5 40 -8 19 -4 49 -10 65 -13 17 -3 100 -7
185 -9 328 -8 537 72 697 265 65 79 100 139 141 245 55 142 67 211 67 390 0
158 -7 207 -43 317 -38 114 -83 188 -167 274 -140 143 -257 200 -697 339 -136
43 -192 78 -218 138 -41 93 1 212 89 255 53 25 183 22 237 -6 81 -41 139 -141
160 -272 l7 -41 71 6 c39 3 103 8 141 11 39 4 86 8 105 9 179 12 246 18 253
22 4 2 6 12 3 21 -3 10 -8 42 -11 72 -3 30 -18 98 -31 150 -100 372 -346 541
-784 538 -71 0 -131 -2 -132 -3z"/>
</g>
</svg>
